<?xml version="1.0" encoding="UTF-8"?>
<svg width="299.83mm" height="283.43mm" version="1.1" viewBox="0 0 299.83 283.43" xmlns="http://www.w3.org/2000/svg">
<defs>
<marker id="b" overflow="visible" orient="auto">
<path transform="matrix(-.8 0 0 -.8 -10 0)" d="m0 0 5-5-17.5 5 17.5 5z" fill="context-stroke" fill-rule="evenodd" stroke="context-stroke" stroke-width="1pt"/>
</marker>
<marker id="a" overflow="visible" orient="auto">
<path transform="matrix(-.8 0 0 -.8 -10 0)" d="m0 0 5-5-17.5 5 17.5 5z" fill="context-stroke" fill-rule="evenodd" stroke="context-stroke" stroke-width="1pt"/>
</marker>
</defs>
<g transform="translate(76.609 -5.6052)">
<g transform="matrix(.26458 0 0 .26458 34.088 69.525)" style="shape-inside:url(#rect5049);white-space:pre" aria-label="Computer making request">
<path d="m33.416 759.8v4.1602q-1.9922-1.8555-4.2578-2.7734-2.2461-0.91797-4.7852-0.91797-5 0-7.6562 3.0664-2.6562 3.0469-2.6562 8.8281 0 5.7617 2.6562 8.8281 2.6562 3.0469 7.6562 3.0469 2.5391 0 4.7852-0.91797 2.2656-0.91797 4.2578-2.7734v4.1211q-2.0703 1.4062-4.3945 2.1094-2.3047 0.70313-4.8828 0.70313-6.6211 0-10.43-4.043-3.8086-4.0625-3.8086-11.074 0-7.0312 3.8086-11.074 3.8086-4.0625 10.43-4.0625 2.6172 0 4.9219 0.70313 2.3242 0.68359 4.3555 2.0703z"/>
<path d="m47.83 767.36q-2.8906 0-4.5703 2.2656-1.6797 2.2461-1.6797 6.1719t1.6602 6.1914q1.6797 2.2461 4.5898 2.2461 2.8711 0 4.5508-2.2656 1.6797-2.2656 1.6797-6.1719 0-3.8867-1.6797-6.1523-1.6797-2.2852-4.5508-2.2852zm0-3.0469q4.6875 0 7.3633 3.0469 2.6758 3.0469 2.6758 8.4375 0 5.3711-2.6758 8.4375-2.6758 3.0469-7.3633 3.0469-4.707 0-7.3828-3.0469-2.6562-3.0664-2.6562-8.4375 0-5.3906 2.6562-8.4375 2.6758-3.0469 7.3828-3.0469z"/>
<path d="m80.857 769.04q1.3477-2.4219 3.2227-3.5742t4.4141-1.1523q3.418 0 5.2734 2.4023 1.8555 2.3828 1.8555 6.7969v13.203h-3.6133v-13.086q0-3.1445-1.1133-4.668-1.1133-1.5234-3.3984-1.5234-2.793 0-4.4141 1.8555-1.6211 1.8555-1.6211 5.0586v12.363h-3.6133v-13.086q0-3.1641-1.1133-4.668-1.1133-1.5234-3.4375-1.5234-2.7539 0-4.375 1.875-1.6211 1.8555-1.6211 5.0391v12.363h-3.6133v-21.875h3.6133v3.3984q1.2305-2.0117 2.9492-2.9688t4.082-0.95703q2.3828 0 4.043 1.2109 1.6797 1.2109 2.4805 3.5156z"/>
<path d="m106.27 783.43v11.602h-3.6133v-30.195h3.6133v3.3203q1.1328-1.9531 2.8516-2.8906 1.7383-0.95703 4.1406-0.95703 3.9844 0 6.4648 3.1641 2.5 3.1641 2.5 8.3203t-2.5 8.3203q-2.4805 3.1641-6.4648 3.1641-2.4024 0-4.1406-0.9375-1.7188-0.95703-2.8516-2.9102zm12.227-7.6367q0-3.9648-1.6406-6.2109-1.6211-2.2656-4.4727-2.2656t-4.4922 2.2656q-1.6211 2.2461-1.6211 6.2109 0 3.9648 1.6211 6.2305 1.6406 2.2461 4.4922 2.2461t4.4727-2.2461q1.6406-2.2656 1.6406-6.2305z"/>
<path d="m127.81 778.08v-13.242h3.5938v13.105q0 3.1055 1.2109 4.668 1.2109 1.543 3.6328 1.543 2.9102 0 4.5898-1.8555 1.6992-1.8555 1.6992-5.0586v-12.402h3.5938v21.875h-3.5938v-3.3594q-1.3086 1.9922-3.0469 2.9688-1.7188 0.95703-4.0039 0.95703-3.7695 0-5.7227-2.3438-1.9531-2.3438-1.9531-6.8555z"/>
<path d="m157.09 758.63v6.2109h7.4023v2.793h-7.4023v11.875q0 2.6758 0.72266 3.4375 0.74218 0.76172 2.9883 0.76172h3.6914v3.0078h-3.6914q-4.1602 0-5.7422-1.543-1.582-1.5625-1.582-5.6641v-11.875h-2.6367v-2.793h2.6367v-6.2109z"/>
<path d="m187.93 774.88v1.7578h-16.523q0.23437 3.7109 2.2266 5.6641 2.0117 1.9336 5.5859 1.9336 2.0703 0 4.0039-0.50781 1.9531-0.50781 3.8672-1.5234v3.3984q-1.9336 0.82031-3.9648 1.25t-4.1211 0.42969q-5.2344 0-8.3008-3.0469-3.0469-3.0469-3.0469-8.2422 0-5.3711 2.8906-8.5156 2.9102-3.1641 7.832-3.1641 4.4141 0 6.9727 2.8516 2.5781 2.832 2.5781 7.7148zm-3.5938-1.0547q-0.0391-2.9492-1.6602-4.707-1.6016-1.7578-4.2578-1.7578-3.0078 0-4.8242 1.6992-1.7969 1.6992-2.0703 4.7852z"/>
<path d="m206.5 768.2q-0.60547-0.35157-1.3281-0.50782-0.70313-0.17578-1.5625-0.17578-3.0469 0-4.6875 1.9922-1.6211 1.9727-1.6211 5.6836v11.523h-3.6133v-21.875h3.6133v3.3984q1.1328-1.9922 2.9492-2.9492 1.8164-0.97656 4.4141-0.97656 0.37109 0 0.82031 0.0586 0.44922 0.0391 0.99609 0.13672z"/>
<path d="m240.02 769.04q1.3476-2.4219 3.2226-3.5742t4.4141-1.1523q3.418 0 5.2734 2.4023 1.8555 2.3828 1.8555 6.7969v13.203h-3.6133v-13.086q0-3.1445-1.1133-4.668-1.1133-1.5234-3.3984-1.5234-2.793 0-4.4141 1.8555-1.6211 1.8555-1.6211 5.0586v12.363h-3.6133v-13.086q0-3.1641-1.1133-4.668-1.1133-1.5234-3.4375-1.5234-2.7539 0-4.375 1.875-1.6211 1.8555-1.6211 5.0391v12.363h-3.6133v-21.875h3.6133v3.3984q1.2305-2.0117 2.9492-2.9688t4.082-0.95703q2.3828 0 4.043 1.2109 1.6797 1.2109 2.4805 3.5156z"/>
<path d="m271.89 775.72q-4.3555 0-6.0352 0.99609t-1.6797 3.3984q0 1.9141 1.25 3.0469 1.2695 1.1133 3.4375 1.1133 2.9883 0 4.7852-2.1094 1.8164-2.1289 1.8164-5.6445v-0.80078zm7.168-1.4844v12.48h-3.5938v-3.3203q-1.2305 1.9922-3.0664 2.9492-1.8359 0.9375-4.4922 0.9375-3.3594 0-5.3516-1.875-1.9727-1.8945-1.9727-5.0586 0-3.6914 2.4609-5.5664 2.4805-1.875 7.3828-1.875h5.0391v-0.35157q0-2.4805-1.6406-3.8281-1.6211-1.3672-4.5703-1.3672-1.875 0-3.6523 0.44922-1.7774 0.44922-3.418 1.3477v-3.3203q1.9726-0.76171 3.8281-1.1328 1.8555-0.39062 3.6133-0.39062 4.7461 0 7.0898 2.4609 2.3438 2.4609 2.3438 7.4609z"/>
<path d="m286.33 756.32h3.6133v17.949l10.723-9.4336h4.5898l-11.602 10.234 12.09 11.641h-4.6875l-11.113-10.684v10.684h-3.6133z"/>
<path d="m309.63 764.84h3.5938v21.875h-3.5938zm0-8.5156h3.5938v4.5508h-3.5938z"/>
<path d="m338.92 773.51v13.203h-3.5938v-13.086q0-3.1055-1.2109-4.6484-1.2109-1.543-3.6328-1.543-2.9102 0-4.5898 1.8555-1.6797 1.8555-1.6797 5.0586v12.363h-3.6133v-21.875h3.6133v3.3984q1.2891-1.9727 3.0273-2.9492 1.7578-0.97656 4.043-0.97656 3.7695 0 5.7031 2.3438 1.9336 2.3242 1.9336 6.8555z"/>
<path d="m360.49 775.52q0-3.9062-1.6211-6.0547-1.6016-2.1484-4.5117-2.1484-2.8906 0-4.5117 2.1484-1.6016 2.1484-1.6016 6.0547 0 3.8867 1.6016 6.0352 1.6211 2.1484 4.5117 2.1484 2.9102 0 4.5117-2.1484 1.6211-2.1484 1.6211-6.0352zm3.5938 8.4766q0 5.5859-2.4805 8.3008-2.4805 2.7344-7.5977 2.7344-1.8945 0-3.5742-0.29297-1.6797-0.27343-3.2617-0.85937v-3.4961q1.582 0.85937 3.125 1.2695 1.543 0.41015 3.1445 0.41015 3.5352 0 5.293-1.8555 1.7578-1.8359 1.7578-5.5664v-1.7774q-1.1133 1.9336-2.8516 2.8906-1.7383 0.95703-4.1602 0.95703-4.0234 0-6.4844-3.0664-2.4609-3.0664-2.4609-8.125 0-5.0781 2.4609-8.1445 2.4609-3.0664 6.4844-3.0664 2.4219 0 4.1602 0.95703 1.7383 0.95703 2.8516 2.8906v-3.3203h3.5938z"/>
<path d="m396.87 768.2q-0.60547-0.35157-1.3281-0.50782-0.70312-0.17578-1.5625-0.17578-3.0469 0-4.6875 1.9922-1.6211 1.9727-1.6211 5.6836v11.523h-3.6133v-21.875h3.6133v3.3984q1.1328-1.9922 2.9492-2.9492 1.8164-0.97656 4.4141-0.97656 0.37109 0 0.82031 0.0586 0.44922 0.0391 0.9961 0.13672z"/>
<path d="m418.47 774.88v1.7578h-16.523q0.23438 3.7109 2.2266 5.6641 2.0117 1.9336 5.5859 1.9336 2.0703 0 4.0039-0.50781 1.9531-0.50781 3.8672-1.5234v3.3984q-1.9336 0.82031-3.9648 1.25t-4.1211 0.42969q-5.2344 0-8.3008-3.0469-3.0469-3.0469-3.0469-8.2422 0-5.3711 2.8906-8.5156 2.9102-3.1641 7.832-3.1641 4.4141 0 6.9726 2.8516 2.5781 2.832 2.5781 7.7148zm-3.5938-1.0547q-0.0391-2.9492-1.6602-4.707-1.6016-1.7578-4.2578-1.7578-3.0078 0-4.8242 1.6992-1.7969 1.6992-2.0703 4.7852z"/>
<path d="m426.52 775.79q0 3.9648 1.6211 6.2305 1.6406 2.2461 4.4922 2.2461 2.8516 0 4.4922-2.2461 1.6406-2.2656 1.6406-6.2305 0-3.9648-1.6406-6.2109-1.6406-2.2656-4.4922-2.2656-2.8516 0-4.4922 2.2656-1.6211 2.2461-1.6211 6.2109zm12.246 7.6367q-1.1328 1.9531-2.8711 2.9102-1.7188 0.9375-4.1406 0.9375-3.9648 0-6.4648-3.1641-2.4805-3.1641-2.4805-8.3203t2.4805-8.3203q2.5-3.1641 6.4648-3.1641 2.4219 0 4.1406 0.95703 1.7383 0.9375 2.8711 2.8906v-3.3203h3.5938v30.195h-3.5938z"/>
<path d="m449.39 778.08v-13.242h3.5938v13.105q0 3.1055 1.2109 4.668 1.2109 1.543 3.6328 1.543 2.9102 0 4.5898-1.8555 1.6992-1.8555 1.6992-5.0586v-12.402h3.5938v21.875h-3.5938v-3.3594q-1.3086 1.9922-3.0469 2.9688-1.7188 0.95703-4.0039 0.95703-3.7695 0-5.7227-2.3438-1.9531-2.3438-1.9531-6.8555z"/>
<path d="m493.83 774.88v1.7578h-16.523q0.23438 3.7109 2.2266 5.6641 2.0117 1.9336 5.5859 1.9336 2.0703 0 4.0039-0.50781 1.9531-0.50781 3.8672-1.5234v3.3984q-1.9336 0.82031-3.9648 1.25t-4.1211 0.42969q-5.2344 0-8.3008-3.0469-3.0469-3.0469-3.0469-8.2422 0-5.3711 2.8906-8.5156 2.9102-3.1641 7.832-3.1641 4.4141 0 6.9727 2.8516 2.5781 2.832 2.5781 7.7148zm-3.5938-1.0547q-0.0391-2.9492-1.6602-4.707-1.6016-1.7578-4.2578-1.7578-3.0078 0-4.8242 1.6992-1.7969 1.6992-2.0703 4.7852z"/>
<path d="m513.67 765.48v3.3984q-1.5234-0.78125-3.1641-1.1719-1.6406-0.39062-3.3984-0.39062-2.6758 0-4.0234 0.82031-1.3281 0.82031-1.3281 2.4609 0 1.25 0.95703 1.9727 0.95703 0.70312 3.8477 1.3476l1.2305 0.27344q3.8281 0.82031 5.4297 2.3242 1.6211 1.4844 1.6211 4.1602 0 3.0469-2.4219 4.8242-2.4023 1.7774-6.6211 1.7774-1.7578 0-3.6719-0.35157-1.8945-0.33203-4.0039-1.0156v-3.7109q1.9922 1.0352 3.9258 1.5625 1.9336 0.50781 3.8281 0.50781 2.5391 0 3.9062-0.85937 1.3672-0.87891 1.3672-2.4609 0-1.4648-0.99609-2.2461-0.97657-0.78125-4.3164-1.5039l-1.25-0.29297q-3.3398-0.70312-4.8242-2.1484-1.4844-1.4648-1.4844-4.0039 0-3.0859 2.1875-4.7656 2.1875-1.6797 6.2109-1.6797 1.9922 0 3.75 0.29297 1.7578 0.29296 3.2422 0.8789z"/>
<path d="m524.12 758.63v6.2109h7.4023v2.793h-7.4023v11.875q0 2.6758 0.72266 3.4375 0.74218 0.76172 2.9883 0.76172h3.6914v3.0078h-3.6914q-4.1602 0-5.7422-1.543-1.582-1.5625-1.582-5.6641v-11.875h-2.6367v-2.793h2.6367v-6.2109z"/>
</g>
<path d="m29.362 260.55h149.85v28.35h-149.85z" fill-opacity="0" stroke="#000" stroke-width=".26458"/>
<g transform="matrix(.26458 0 0 .26458 55.35 4.725)" style="shape-inside:url(#rect9630);white-space:pre" aria-label="Server">
<path d="m126 49.281v3.8477q-2.2461-1.0742-4.2383-1.6016-1.9922-0.52734-3.8477-0.52734-3.2227 0-4.9805 1.25-1.7383 1.25-1.7383 3.5547 0 1.9336 1.1523 2.9297 1.1719 0.97656 4.4141 1.582l2.3828 0.48828q4.4141 0.83984 6.5039 2.9688 2.1094 2.1094 2.1094 5.6641 0 4.2383-2.8516 6.4258-2.832 2.1875-8.3203 2.1875-2.0703 0-4.4141-0.46875-2.3242-0.46875-4.8242-1.3867v-4.0625q2.4024 1.3477 4.707 2.0312 2.3047 0.68359 4.5312 0.68359 3.3789 0 5.2148-1.3281t1.8359-3.7891q0-2.1484-1.3281-3.3594-1.3086-1.2109-4.3164-1.8164l-2.4023-0.46875q-4.4141-0.87891-6.3867-2.7539-1.9726-1.875-1.9726-5.2148 0-3.8672 2.7148-6.0938 2.7344-2.2266 7.5195-2.2266 2.0508 0 4.1797 0.37109 2.1289 0.37109 4.3555 1.1133z"/>
<path d="m152.47 65.648v1.7578h-16.523q0.23438 3.7109 2.2266 5.6641 2.0117 1.9336 5.5859 1.9336 2.0703 0 4.0039-0.50781 1.9531-0.50781 3.8672-1.5234v3.3984q-1.9336 0.82031-3.9648 1.25-2.0312 0.42969-4.1211 0.42969-5.2344 0-8.3008-3.0469-3.0469-3.0469-3.0469-8.2422 0-5.3711 2.8906-8.5156 2.9102-3.1641 7.832-3.1641 4.4141 0 6.9726 2.8516 2.5781 2.832 2.5781 7.7148zm-3.5938-1.0547q-0.0391-2.9492-1.6602-4.707-1.6016-1.7578-4.2578-1.7578-3.0078 0-4.8242 1.6992-1.7969 1.6992-2.0703 4.7852z"/>
<path d="m171.04 58.969q-0.60547-0.35156-1.3281-0.50781-0.70312-0.17578-1.5625-0.17578-3.0469 0-4.6875 1.9922-1.6211 1.9727-1.6211 5.6836v11.523h-3.6133v-21.875h3.6133v3.3984q1.1328-1.9922 2.9492-2.9492 1.8164-0.97656 4.4141-0.97656 0.37109 0 0.82031 0.05859 0.44922 0.03906 0.9961 0.13672z"/>
<path d="m172.23 55.609h3.8086l6.8359 18.359 6.8359-18.359h3.8086l-8.2031 21.875h-4.8828z"/>
<path d="m217.2 65.648v1.7578h-16.523q0.23438 3.7109 2.2266 5.6641 2.0117 1.9336 5.5859 1.9336 2.0703 0 4.0039-0.50781 1.9531-0.50781 3.8672-1.5234v3.3984q-1.9336 0.82031-3.9648 1.25-2.0312 0.42969-4.1211 0.42969-5.2344 0-8.3008-3.0469-3.0469-3.0469-3.0469-8.2422 0-5.3711 2.8906-8.5156 2.9102-3.1641 7.832-3.1641 4.4141 0 6.9727 2.8516 2.5781 2.832 2.5781 7.7148zm-3.5938-1.0547q-0.0391-2.9492-1.6602-4.707-1.6016-1.7578-4.2578-1.7578-3.0078 0-4.8242 1.6992-1.7969 1.6992-2.0703 4.7852z"/>
<path d="m235.77 58.969q-0.60547-0.35156-1.3281-0.50781-0.70313-0.17578-1.5625-0.17578-3.0469 0-4.6875 1.9922-1.6211 1.9727-1.6211 5.6836v11.523h-3.6133v-21.875h3.6133v3.3984q1.1328-1.9922 2.9492-2.9492 1.8164-0.97656 4.4141-0.97656 0.3711 0 0.82032 0.05859 0.44921 0.03906 0.99609 0.13672z"/>
</g>
<path d="m54 5.7375h92.813v33.75h-92.813z" fill-opacity="0" stroke="#000" stroke-width=".26458"/>
<path transform="scale(-1,1)" d="m-81.764 43.903h0.60388v211.04h-0.60388z" fill-opacity="0" marker-end="url(#b)" stroke="#000" stroke-width=".821"/>
<path transform="scale(-1)" d="m-126.56-253.23h0.60388v208.68h-0.60388z" fill-opacity="0" marker-end="url(#a)" stroke="#000" stroke-width=".81641"/>
<g transform="scale(.26458)" style="shape-inside:url(#rect26016);white-space:pre" aria-label='{"data":[1,2,3]}'>
<path d="m512.45 406.94h-1.4453q-3.7695 0-5.6055-1.7774-1.8359-1.7578-1.8359-5.3516v-6.7188q0-0.95703-0.21484-1.6992-0.21485-0.76172-0.76172-1.2695-0.52735-0.52734-1.4258-0.80078-0.87891-0.27344-2.2266-0.27344h-0.83984v-2.7148h0.83984q1.4258 0 2.3242-0.23438 0.89844-0.23437 1.4062-0.70312 0.50781-0.48828 0.70313-1.2305 0.19531-0.74219 0.19531-1.7578v-4.6289q0-1.6406 0.39062-2.9492 0.39063-1.3281 1.2695-2.2461 0.89843-0.9375 2.3047-1.4258 1.4258-0.50782 3.4766-0.50782h1.4453v2.7344h-1.1524q-4.5312 0-4.5312 4.3945v4.5508q0 4.7656-4.1211 5.3711 4.1602 0.41016 4.1602 5.3516v6.6797q0 4.4727 4.4922 4.4727h1.1524z"/>
<path d="m526.28 371.34-0.54687 9.1602h-3.2031l-0.5664-9.1602zm7.5977 0-0.54688 9.1602h-3.2031l-0.56641-9.1602z"/>
<path d="m541.04 389.54q0-2.5 0.68359-4.4336 0.6836-1.9531 1.9336-3.2812 1.2695-1.3477 3.0273-2.0312 1.7773-0.70313 3.9453-0.70313 0.9375 0 1.8359 0.11719 0.91797 0.11719 1.7969 0.37109v-8.2422h3.418v27.598h-3.0469l-0.11719-3.7109q-1.4258 2.0703-3.0859 3.0664-1.6602 0.9961-3.5938 0.9961-1.6797 0-2.9688-0.70313-1.2695-0.70312-2.1289-1.9727-0.83985-1.2891-1.2695-3.0859-0.42969-1.7969-0.42969-3.9844zm3.4766-0.21484q0 3.5547 1.0352 5.3125 1.0547 1.7383 2.9688 1.7383 1.2891 0 2.7148-1.1523 1.4453-1.1524 3.0273-3.418v-9.1016q-0.83984-0.39062-1.8555-0.58593-1.0156-0.21485-2.0117-0.21485-2.7734 0-4.3359 1.7969-1.543 1.7969-1.543 5.625z"/>
<path d="m576.63 398.93-0.0781-2.6367q-1.6016 1.582-3.2617 2.2852-1.6406 0.70313-3.457 0.70313-1.6797 0-2.8711-0.42969-1.1914-0.42969-1.9727-1.1719-0.76172-0.76172-1.1328-1.7773-0.35156-1.0156-0.35156-2.207 0-2.9492 2.1875-4.6094 2.207-1.6797 6.5039-1.6797h4.0625v-1.7188q0-1.7383-1.1133-2.7734-1.1133-1.0547-3.3984-1.0547-1.6602 0-3.2812 0.37109-1.6016 0.3711-3.3203 1.0547v-3.0664q0.64453-0.23438 1.4258-0.44922 0.80078-0.23438 1.6797-0.41016t1.8359-0.27344q0.95703-0.11718 1.9336-0.11718 1.7773 0 3.2031 0.39062 1.4258 0.39063 2.4023 1.1914 0.99609 0.80078 1.5234 2.0117 0.52734 1.2109 0.52734 2.8516v13.516zm-0.3711-8.9258h-4.3164q-1.2695 0-2.1875 0.25391-0.91797 0.2539-1.5039 0.72265t-0.87891 1.1328q-0.27343 0.64453-0.27343 1.4648 0 0.56641 0.17578 1.0938 0.17578 0.50781 0.5664 0.91797 0.39063 0.39062 1.0156 0.625 0.625 0.23437 1.5234 0.23437 1.1719 0 2.6758-0.70312 1.5234-0.72266 3.2031-2.2656z"/>
<path d="m601.82 398.66q-1.1524 0.29296-2.3828 0.41015-1.2305 0.13672-2.5 0.13672-3.6914 0-5.5078-1.6602-1.8164-1.6797-1.8164-5.1367v-10.234h-5.4883v-2.8516h5.4883v-5.3906l3.3984-0.8789v6.2695h8.8086v2.8516h-8.8086v9.9609q0 2.1094 1.1133 3.1641 1.1328 1.0352 3.3203 1.0352 0.9375 0 2.0508-0.13672 1.1133-0.15625 2.3242-0.46875z"/>
<path d="m620.61 398.93-0.0781-2.6367q-1.6016 1.582-3.2617 2.2852-1.6406 0.70313-3.457 0.70313-1.6797 0-2.8711-0.42969-1.1914-0.42969-1.9726-1.1719-0.76172-0.76172-1.1328-1.7773-0.35156-1.0156-0.35156-2.207 0-2.9492 2.1875-4.6094 2.207-1.6797 6.5039-1.6797h4.0625v-1.7188q0-1.7383-1.1133-2.7734-1.1133-1.0547-3.3984-1.0547-1.6602 0-3.2812 0.37109-1.6016 0.3711-3.3203 1.0547v-3.0664q0.64453-0.23438 1.4258-0.44922 0.80078-0.23438 1.6797-0.41016 0.87891-0.17578 1.8359-0.27344 0.95703-0.11718 1.9336-0.11718 1.7773 0 3.2031 0.39062 1.4258 0.39063 2.4023 1.1914 0.9961 0.80078 1.5234 2.0117 0.52735 1.2109 0.52735 2.8516v13.516zm-0.37109-8.9258h-4.3164q-1.2695 0-2.1875 0.25391-0.91797 0.2539-1.5039 0.72265-0.58593 0.46875-0.8789 1.1328-0.27344 0.64453-0.27344 1.4648 0 0.56641 0.17578 1.0938 0.17578 0.50781 0.56641 0.91797 0.39062 0.39062 1.0156 0.625 0.625 0.23437 1.5234 0.23437 1.1719 0 2.6758-0.70312 1.5234-0.72266 3.2031-2.2656z"/>
<path d="m636.24 371.34-0.54687 9.1602h-3.2031l-0.56641-9.1602zm7.5977 0-0.54688 9.1602h-3.2031l-0.56641-9.1602z"/>
<path d="m659.87 378.97q0.60547 0 1.1524 0.2539 0.54687 0.23438 0.95703 0.64453 0.41015 0.41016 0.64453 0.95703 0.25391 0.54688 0.25391 1.1524 0 0.625-0.25391 1.1719-0.23438 0.52735-0.64453 0.9375-0.41016 0.41016-0.95703 0.64453-0.54688 0.23438-1.1524 0.23438-0.625 0-1.1719-0.23438-0.52735-0.23437-0.9375-0.64453-0.41016-0.41015-0.64453-0.9375-0.23438-0.54687-0.23438-1.1719 0-0.60547 0.23438-1.1524 0.23437-0.54687 0.64453-0.95703 0.41015-0.41015 0.9375-0.64453 0.54687-0.2539 1.1719-0.2539zm0 14.316q0.60547 0 1.1524 0.25391 0.54687 0.23437 0.95703 0.64453 0.41015 0.41016 0.64453 0.95703 0.25391 0.54688 0.25391 1.1523 0 0.625-0.25391 1.1719-0.23438 0.52734-0.64453 0.9375-0.41016 0.41016-0.95703 0.64453-0.54688 0.23438-1.1524 0.23438-0.625 0-1.1719-0.23438-0.52735-0.23437-0.9375-0.64453-0.41016-0.41016-0.64453-0.9375-0.23438-0.54688-0.23438-1.1719 0-0.60546 0.23438-1.1523 0.23437-0.54687 0.64453-0.95703 0.41015-0.41016 0.9375-0.64453 0.54687-0.25391 1.1719-0.25391z"/>
<path d="m687.23 406.94h-9.6289v-36.289h9.6289v2.7344h-6.3867v30.82h6.3867z"/>
<path d="m712.33 398.93h-16.035v-3.1641h6.5625v-18.633l-6.1133 3.3203-1.25-2.8906 8.125-4.2774h3.0078v22.48h5.7031z"/>
<path d="m719.5 402.94q0.99609 0.0391 1.9336-0.17578 0.9375-0.21485 1.6406-0.64453 0.72265-0.41016 1.1523-1.0352t0.42969-1.4258q0-0.82031-0.29297-1.3281-0.27344-0.50781-0.625-0.9375-0.35156-0.42968-0.64453-0.91796-0.27344-0.48829-0.27344-1.3086 0-0.41015 0.15625-0.85937t0.46875-0.82032q0.33203-0.37109 0.82031-0.60546 0.50782-0.23438 1.1914-0.23438t1.3086 0.29297q0.64454 0.27344 1.1133 0.85937 0.48828 0.58594 0.76171 1.4648 0.29297 0.8789 0.29297 2.0703 0 1.6211-0.60547 3.1055-0.58593 1.5039-1.7773 2.6562-1.1719 1.1523-2.9492 1.8359-1.7578 0.68359-4.1016 0.68359z"/>
<path d="m756.53 398.93h-16.816v-3.0469l6.6016-6.5625q1.6211-1.6016 2.6367-2.7734 1.0156-1.1719 1.582-2.1289 0.5664-0.97656 0.76171-1.8359 0.19532-0.85938 0.19532-1.8555 0-0.9375-0.25391-1.7774-0.25391-0.85937-0.78125-1.5039t-1.3672-1.0156q-0.83984-0.37109-2.0117-0.37109-1.6211 0-2.9492 0.72266-1.3281 0.72265-2.4414 1.875l-1.875-2.2461q1.4453-1.5234 3.3203-2.4414 1.8945-0.91797 4.3945-0.91797 1.6992 0 3.0859 0.50781 1.4062 0.50781 2.4219 1.4648 1.0156 0.95703 1.5625 2.3438 0.5664 1.3867 0.5664 3.125 0 1.4648-0.39062 2.7148-0.39063 1.25-1.1914 2.5-0.78125 1.2305-1.9922 2.5586-1.1914 1.3281-2.832 2.9102l-4.6289 4.5117h12.402z"/>
<path d="m763.48 402.94q0.9961 0.0391 1.9336-0.17578 0.9375-0.21485 1.6406-0.64453 0.72266-0.41016 1.1524-1.0352 0.42968-0.625 0.42968-1.4258 0-0.82031-0.29296-1.3281-0.27344-0.50781-0.625-0.9375-0.35157-0.42968-0.64454-0.91796-0.27343-0.48829-0.27343-1.3086 0-0.41015 0.15625-0.85937t0.46875-0.82032q0.33203-0.37109 0.82031-0.60546 0.50781-0.23438 1.1914-0.23438 0.68359 0 1.3086 0.29297 0.64453 0.27344 1.1133 0.85937 0.48828 0.58594 0.76172 1.4648 0.29297 0.8789 0.29297 2.0703 0 1.6211-0.60547 3.1055-0.58594 1.5039-1.7773 2.6562-1.1719 1.1523-2.9492 1.8359-1.7578 0.68359-4.1016 0.68359z"/>
<path d="m800.03 391.18q0 1.6797-0.68359 3.1641-0.68359 1.4648-2.0508 2.5781-1.3672 1.0938-3.4375 1.7383-2.0703 0.625-4.8242 0.625-1.5234 0-2.7344-0.0977-1.2109-0.0977-2.2656-0.25391v-3.0469q1.2109 0.21484 2.5586 0.33203 1.3477 0.11719 2.7539 0.11719 1.9141 0 3.2617-0.33203 1.3672-0.35157 2.2266-0.9961 0.85938-0.64453 1.25-1.5625 0.39063-0.91797 0.39063-2.0703 0-1.0547-0.46875-1.8359t-1.3281-1.3086q-0.83984-0.52735-2.0312-0.78125-1.1719-0.27344-2.5781-0.27344h-2.9102v-2.793h2.9492q1.1523 0 2.0898-0.29297 0.95703-0.3125 1.6211-0.8789 0.68359-0.56641 1.0352-1.3867 0.3711-0.83985 0.3711-1.8945 0-2.0508-1.25-2.9883t-3.6719-0.9375q-1.2891 0-2.6562 0.2539-1.3672 0.25391-2.9297 0.76172v-2.9688q0.66407-0.23437 1.4062-0.41016 0.76172-0.19531 1.5039-0.3125 0.76172-0.13671 1.5039-0.19531 0.74218-0.0781 1.4258-0.0781 2.0312 0 3.5742 0.44922 1.543 0.42968 2.5781 1.25 1.0352 0.82031 1.5625 1.9922 0.52734 1.1719 0.52734 2.6367 0 2.1875-1.1328 3.6719-1.1133 1.4844-3.0664 2.3633 0.99609 0.15625 1.9531 0.625 0.97656 0.46875 1.7383 1.2109 0.78125 0.72265 1.25 1.7188 0.48828 0.99609 0.48828 2.207z"/>
<path d="m818.07 406.94h-9.6289v-2.7344h6.3477v-30.82h-6.3477v-2.7344h9.6289z"/>
<path d="m829.29 370.65h1.4453q3.7695 0 5.6055 1.7774 1.8359 1.7578 1.8359 5.3516v4.5117q0 0.95703 0.21485 1.7188 0.21484 0.74219 0.74219 1.2695 0.54687 0.50781 1.4453 0.78125t2.2461 0.27344h0.83985v2.7148h-0.83985q-1.4258 0-2.3438 0.23438-0.89844 0.23437-1.4062 0.72265-0.50781 0.46875-0.70312 1.2109-0.19532 0.74219-0.19532 1.7578v6.8359q0 1.6406-0.39062 2.9492-0.39063 1.3281-1.2695 2.2461-0.87891 0.9375-2.3047 1.4258-1.4258 0.50782-3.4766 0.50782h-1.4453v-2.7344h1.1719q4.5117 0 4.5117-4.3945v-6.7578q0-4.7656 4.1211-5.3516-4.1602-0.44921-4.1602-5.3711v-4.4727q0-4.4726-4.4727-4.4726h-1.1719z"/>
</g>
<g transform="scale(.26458)" style="shape-inside:url(#rect38646);white-space:pre" aria-label="GET /api.php?method=get_data">
<path d="m-271.19 381.61q-1.4258-0.76172-2.9297-1.1719-1.5039-0.42969-3.2812-0.42969-2.0312 0-3.6133 0.72266-1.582 0.72265-2.6758 2.0508-1.0742 1.3086-1.6602 3.1641-0.56641 1.8555-0.56641 4.1016 0 2.3438 0.46875 4.1992t1.4648 3.1445q0.9961 1.2891 2.5391 1.9727 1.5625 0.68359 3.7305 0.68359 0.37109 0 0.80078-0.0391 0.42968-0.0391 0.85937-0.0977 0.42969-0.0781 0.82031-0.17578 0.41016-0.0976 0.72266-0.21484v-8.125h-5.2148v-2.8711h8.6523v13.047q-0.80078 0.37109-1.6992 0.66406-0.8789 0.29297-1.8164 0.48828-0.91797 0.19532-1.8359 0.29297-0.91797 0.0977-1.7774 0.0977-2.6172 0-4.7266-0.82031-2.0898-0.82032-3.5742-2.4219-1.4648-1.6211-2.2656-4.0234-0.78125-2.4023-0.78125-5.5664 0-3.1445 0.8789-5.625 0.87891-2.5 2.4609-4.2188 1.6016-1.7383 3.8281-2.6367 2.2461-0.91797 4.9414-0.91797 1.7188 0 3.2617 0.3125 1.5625 0.29297 2.9883 0.95703z"/>
<path d="m-250.4 402.76h-14.512v-25.527h14.512v2.9297h-11.035v7.9102h10.605v2.9297h-10.605v8.7891h11.035z"/>
<path d="m-226.54 380.2h-7.5586v22.559h-3.5156v-22.559h-7.5586v-2.9688h18.633z"/>
<path d="m-271.95 425.85-13.398 31.797h-3.2422l13.398-31.797z"/>
<path d="m-253.12 453.44-0.0781-2.6367q-1.6016 1.582-3.2617 2.2852-1.6406 0.70312-3.457 0.70312-1.6797 0-2.8711-0.42969-1.1914-0.42968-1.9727-1.1719-0.76171-0.76172-1.1328-1.7773-0.35156-1.0156-0.35156-2.207 0-2.9492 2.1875-4.6094 2.207-1.6797 6.5039-1.6797h4.0625v-1.7188q0-1.7383-1.1133-2.7734-1.1133-1.0547-3.3984-1.0547-1.6602 0-3.2812 0.37109-1.6016 0.37109-3.3203 1.0547v-3.0664q0.64454-0.23437 1.4258-0.44922 0.80078-0.23437 1.6797-0.41015 0.87891-0.17578 1.8359-0.27344 0.95703-0.11719 1.9336-0.11719 1.7774 0 3.2031 0.39063 1.4258 0.39062 2.4023 1.1914 0.9961 0.80078 1.5234 2.0117t0.52734 2.8516v13.516zm-0.37109-8.9258h-4.3164q-1.2695 0-2.1875 0.2539-0.91797 0.25391-1.5039 0.72266-0.58593 0.46875-0.8789 1.1328-0.27344 0.64453-0.27344 1.4648 0 0.5664 0.17578 1.0938 0.17578 0.50781 0.56641 0.91797 0.39062 0.39062 1.0156 0.625 0.625 0.23437 1.5234 0.23437 1.1719 0 2.6758-0.70312 1.5234-0.72266 3.2031-2.2656z"/>
<path d="m-226.97 443.29q0 2.6172-0.74218 4.5703-0.72266 1.9531-2.0117 3.2422-1.2891 1.2891-3.0469 1.9336t-3.8086 0.64453q-0.9375 0-1.875-0.0976-0.91797-0.0977-1.875-0.33203v8.2031h-3.3984v-27.617h3.0273l0.21485 3.2812q1.4648-2.0117 3.125-2.8125 1.6602-0.82031 3.5938-0.82031 1.6797 0 2.9492 0.70313 1.2695 0.70312 2.1289 1.9922 0.85938 1.2695 1.2891 3.0859 0.42968 1.7969 0.42968 4.0234zm-3.4766 0.15625q0-1.543-0.23437-2.832-0.21485-1.2891-0.70313-2.207t-1.25-1.4258q-0.76172-0.52735-1.8164-0.52735-0.64453 0-1.3086 0.21485-0.66406 0.19531-1.3867 0.68359-0.70312 0.46875-1.5039 1.2695-0.78125 0.78125-1.6797 1.9531v9.5117q0.9375 0.39063 1.9726 0.625 1.0352 0.21485 2.0312 0.21485 2.7539 0 4.3164-1.8555 1.5625-1.875 1.5625-5.625z"/>
<path d="m-215.05 436.65h-5.8008v-2.8125h9.2383v16.777h5.8398v2.832h-15.723v-2.832h6.4453zm1.1914-11.035q0.56641 0 1.0547 0.21484 0.48828 0.19531 0.83984 0.56641 0.3711 0.37109 0.56641 0.85937 0.21484 0.46875 0.21484 1.0352 0 0.54687-0.21484 1.0352-0.19531 0.48828-0.56641 0.85937-0.35156 0.37109-0.83984 0.58594-0.48828 0.19531-1.0547 0.19531-0.5664 0-1.0547-0.19531-0.48828-0.21485-0.85937-0.58594-0.35156-0.37109-0.56641-0.85937-0.19531-0.48829-0.19531-1.0352 0-0.56641 0.19531-1.0352 0.21485-0.48828 0.56641-0.85937 0.37109-0.3711 0.85937-0.56641 0.48829-0.21484 1.0547-0.21484z"/>
<path d="m-192.03 447.29q0.66406 0 1.25 0.2539 0.60547 0.25391 1.0352 0.70313 0.44921 0.44922 0.70312 1.0547 0.25391 0.58594 0.25391 1.2695 0 0.66406-0.25391 1.25-0.25391 0.58593-0.70312 1.0352-0.42969 0.42969-1.0352 0.6836-0.58594 0.2539-1.25 0.2539-0.68359 0-1.2695-0.2539-0.58594-0.25391-1.0352-0.6836-0.42969-0.44922-0.68359-1.0352-0.25391-0.58594-0.25391-1.25 0-0.6836 0.25391-1.2695 0.2539-0.60546 0.68359-1.0547 0.44922-0.44922 1.0352-0.70313 0.58594-0.2539 1.2695-0.2539z"/>
<path d="m-160.99 443.29q0 2.6172-0.74219 4.5703-0.72266 1.9531-2.0117 3.2422t-3.0469 1.9336q-1.7578 0.64453-3.8086 0.64453-0.9375 0-1.875-0.0976-0.91797-0.0977-1.875-0.33203v8.2031h-3.3984v-27.617h3.0274l0.21484 3.2812q1.4648-2.0117 3.125-2.8125 1.6602-0.82031 3.5938-0.82031 1.6797 0 2.9492 0.70313 1.2695 0.70312 2.1289 1.9922 0.85937 1.2695 1.2891 3.0859 0.42969 1.7969 0.42969 4.0234zm-3.4766 0.15625q0-1.543-0.23437-2.832-0.21485-1.2891-0.70313-2.207t-1.25-1.4258q-0.76172-0.52735-1.8164-0.52735-0.64453 0-1.3086 0.21485-0.66406 0.19531-1.3867 0.68359-0.70312 0.46875-1.5039 1.2695-0.78125 0.78125-1.6797 1.9531v9.5117q0.9375 0.39063 1.9727 0.625 1.0352 0.21485 2.0312 0.21485 2.7539 0 4.3164-1.8555 1.5625-1.875 1.5625-5.625z"/>
<path d="m-139.99 453.44h-3.3984v-12.52q0-2.2656-0.85937-3.3789-0.83985-1.1328-2.4219-1.1328-0.68359 0-1.2891 0.19531-0.58594 0.17578-1.2305 0.64453-0.64453 0.44922-1.4062 1.2305t-1.7578 1.9531v13.008h-3.3984v-27.598h3.3984v7.9883l-0.11719 3.0859q0.80078-0.95703 1.5625-1.6016 0.78125-0.66406 1.543-1.0742 0.78125-0.41016 1.582-0.58594t1.6602-0.17578q2.9297 0 4.5312 1.7969 1.6016 1.7773 1.6016 5.3711z"/>
<path d="m-117.01 443.29q0 2.6172-0.74219 4.5703-0.72265 1.9531-2.0117 3.2422-1.2891 1.2891-3.0469 1.9336t-3.8086 0.64453q-0.9375 0-1.875-0.0976-0.91797-0.0977-1.875-0.33203v8.2031h-3.3984v-27.617h3.0273l0.21485 3.2812q1.4648-2.0117 3.125-2.8125 1.6602-0.82031 3.5938-0.82031 1.6797 0 2.9492 0.70313 1.2695 0.70312 2.1289 1.9922 0.85938 1.2695 1.2891 3.0859 0.42969 1.7969 0.42969 4.0234zm-3.4766 0.15625q0-1.543-0.23438-2.832-0.21484-1.2891-0.70312-2.207t-1.25-1.4258q-0.76172-0.52735-1.8164-0.52735-0.64453 0-1.3086 0.21485-0.66406 0.19531-1.3867 0.68359-0.70313 0.46875-1.5039 1.2695-0.78125 0.78125-1.6797 1.9531v9.5117q0.9375 0.39063 1.9726 0.625 1.0352 0.21485 2.0312 0.21485 2.7539 0 4.3164-1.8555 1.5625-1.875 1.5625-5.625z"/>
<path d="m-96.889 434.52q0 3.1641-1.7578 4.8047-1.7578 1.6211-5.0977 1.8359l-0.15625 4.8047h-2.9102l-0.2539-7.4805h2.2852q1.1914 0 1.9922-0.2539 0.80078-0.25391 1.2891-0.72266t0.70313-1.1328q0.21484-0.6836 0.21484-1.5234 0-1.4258-0.58594-2.5391-0.58593-1.1133-1.6406-1.875t-2.5195-1.1524q-1.4453-0.39062-3.1641-0.39062h-0.48829v-3.0469h0.52735q1.9726 0 3.5938 0.3711 1.6406 0.37109 2.9102 1.0156 1.2891 0.625 2.2266 1.4844 0.95703 0.85937 1.582 1.8164 0.64453 0.95703 0.9375 1.9922 0.3125 1.0156 0.3125 1.9922zm-8.4961 14.121q0.54688 0 1.0156 0.21485 0.46875 0.19531 0.80078 0.54687 0.35156 0.35156 0.54688 0.83984 0.19531 0.46875 0.19531 0.9961 0 0.52734-0.19531 0.99609-0.19532 0.46875-0.54688 0.82031-0.33203 0.33204-0.80078 0.52735-0.46875 0.21484-1.0156 0.21484-0.52734 0-0.99609-0.21484-0.46875-0.19531-0.82031-0.52735-0.35156-0.35156-0.54688-0.82031-0.19531-0.46875-0.19531-0.99609 0-0.52735 0.19531-0.9961 0.19532-0.48828 0.54688-0.83984t0.82031-0.54687q0.46875-0.21485 0.99609-0.21485z"/>
<path d="m-75.795 453.44v-14.082q0-0.91797-0.07813-1.5039-0.05859-0.58594-0.21484-0.91797-0.13672-0.35156-0.37109-0.48828-0.21484-0.13672-0.54688-0.13672-0.39062 0-0.72266 0.23438-0.33203 0.23437-0.72266 0.76172-0.37109 0.52734-0.83984 1.4062-0.44922 0.85937-1.0742 2.1289v12.598h-3.1055v-13.711q0-1.0742-0.07813-1.7383-0.05859-0.66406-0.21484-1.0352-0.13672-0.37109-0.37109-0.50781t-0.56641-0.13672q-0.35156 0-0.66406 0.19532-0.3125 0.19531-0.70312 0.70312-0.37109 0.50781-0.83984 1.3867t-1.1133 2.2461v12.598h-3.125v-19.609h2.5977l0.15625 3.7305q0.50781-1.1133 0.97656-1.8945 0.48828-0.78125 0.99609-1.25 0.50781-0.48828 1.0742-0.70312 0.58594-0.23438 1.2891-0.23438 1.582 0 2.4023 1.0352 0.82031 1.0352 0.82031 3.2031 0.46875-1.0156 0.91797-1.7969 0.44922-0.80078 0.95703-1.3281 0.52734-0.54687 1.1523-0.82031 0.625-0.29297 1.4453-0.29297 3.6914 0 3.6914 5.6836v14.277z"/>
<path d="m-51.225 442.6q0 0.72265-0.01953 1.2109t-0.05859 0.91797h-13.77q0 3.0078 1.6797 4.6289 1.6797 1.6016 4.8438 1.6016 0.85938 0 1.7188-0.0586 0.85938-0.0781 1.6602-0.19532 0.80078-0.11718 1.5234-0.2539 0.74219-0.15625 1.3672-0.33203v2.793q-1.3867 0.39062-3.1445 0.625-1.7383 0.2539-3.6133 0.2539-2.5195 0-4.3359-0.68359-1.8164-0.6836-2.9883-1.9727-1.1523-1.3086-1.7188-3.1836-0.54688-1.8945-0.54688-4.2774 0-2.0703 0.58594-3.9062 0.60547-1.8555 1.7383-3.2422 1.1523-1.4062 2.8125-2.2266 1.6602-0.82031 3.7695-0.82031 2.0508 0 3.6328 0.64453 1.582 0.64453 2.6562 1.8359 1.0938 1.1719 1.6406 2.8711 0.56641 1.6797 0.56641 3.7695zm-3.5352-0.48829q0.05859-1.3086-0.25391-2.3828-0.3125-1.0938-0.97656-1.875-0.64453-0.78125-1.6211-1.2109-0.97656-0.44921-2.2656-0.44921-1.1133 0-2.0312 0.42968-0.91797 0.42969-1.582 1.2109-0.66406 0.78125-1.0742 1.875t-0.50781 2.4023z"/>
<path d="m-29.994 453.17q-1.1523 0.29297-2.3828 0.41016-1.2305 0.13672-2.5 0.13672-3.6914 0-5.5078-1.6602-1.8164-1.6797-1.8164-5.1367v-10.234h-5.4883v-2.8516h5.4883v-5.3906l3.3984-0.87891v6.2695h8.8086v2.8516h-8.8086v9.9609q0 2.1094 1.1133 3.1641 1.1328 1.0352 3.3203 1.0352 0.9375 0 2.0508-0.13672 1.1133-0.15625 2.3242-0.46875z"/>
<path d="m-8.041 453.44h-3.3984v-12.52q0-2.2656-0.85938-3.3789-0.83984-1.1328-2.4219-1.1328-0.68359 0-1.2891 0.19531-0.58594 0.17578-1.2305 0.64453-0.64453 0.44922-1.4062 1.2305-0.76172 0.78125-1.7578 1.9531v13.008h-3.3984v-27.598h3.3984v7.9883l-0.11719 3.0859q0.80078-0.95703 1.5625-1.6016 0.78125-0.66406 1.543-1.0742 0.78125-0.41016 1.582-0.58594 0.80078-0.17578 1.6602-0.17578 2.9297 0 4.5312 1.7969 1.6016 1.7773 1.6016 5.3711z"/>
<path d="m15.26 443.48q0 2.2852-0.64453 4.1992-0.64453 1.8945-1.8555 3.2617-1.2109 1.3477-2.9492 2.1094-1.7383 0.74219-3.9453 0.74219-2.1094 0-3.7891-0.64453-1.6602-0.66406-2.832-1.9336-1.1523-1.2695-1.7773-3.1445-0.60547-1.875-0.60547-4.3164 0-2.2852 0.64453-4.1602 0.64453-1.8945 1.8555-3.2422 1.2109-1.3672 2.9492-2.1094 1.7383-0.76172 3.9453-0.76172 2.1094 0 3.7695 0.66406 1.6797 0.64454 2.832 1.9141 1.1719 1.25 1.7773 3.125 0.625 1.875 0.625 4.2969zm-3.4766 0.15625q0-1.8164-0.41016-3.1641-0.39062-1.3672-1.1328-2.2656-0.74219-0.91796-1.8164-1.3672-1.0547-0.46875-2.3633-0.46875-1.5234 0-2.6172 0.60547-1.0742 0.58593-1.7773 1.582-0.68359 0.99609-1.0156 2.3242-0.3125 1.3086-0.3125 2.7539 0 1.8164 0.39062 3.1836 0.41016 1.3672 1.1523 2.2852 0.74219 0.89844 1.7969 1.3672 1.0547 0.44922 2.3828 0.44922 1.5234 0 2.5977-0.58594 1.0938-0.60547 1.7773-1.6016 0.70312-0.9961 1.0156-2.3047 0.33203-1.3281 0.33203-2.793z"/>
<path d="m19.186 444.05q0-2.5 0.68359-4.4336 0.68359-1.9531 1.9336-3.2812 1.2695-1.3476 3.0273-2.0312 1.7773-0.70312 3.9453-0.70312 0.9375 0 1.8359 0.11719 0.91797 0.11718 1.7969 0.37109v-8.2422h3.418v27.598h-3.0469l-0.11719-3.7109q-1.4258 2.0703-3.0859 3.0664-1.6602 0.99609-3.5938 0.99609-1.6797 0-2.9688-0.70312-1.2695-0.70313-2.1289-1.9727-0.83984-1.2891-1.2695-3.0859-0.42969-1.7969-0.42969-3.9844zm3.4766-0.21485q0 3.5547 1.0352 5.3125 1.0547 1.7383 2.9688 1.7383 1.2891 0 2.7148-1.1524 1.4453-1.1523 3.0273-3.418v-9.1016q-0.83984-0.39062-1.8555-0.58594-1.0156-0.21484-2.0117-0.21484-2.7734 0-4.3359 1.7969-1.543 1.7969-1.543 5.625z"/>
<path d="m58.443 440.83h-16.797v-2.8711h16.797zm0 6.7969h-16.797v-2.8711h16.797z"/>
<path d="m78.287 436.61q0.54688 0.6836 0.83984 1.6016 0.3125 0.89844 0.3125 1.9531 0 1.5234-0.56641 2.793-0.54688 1.25-1.5625 2.1484-1.0156 0.89843-2.4414 1.4062-1.4062 0.48828-3.1055 0.48828-1.2305 0-2.3047-0.25391-1.0742-0.27344-1.6992-0.66406-0.37109 0.54687-0.625 1.0352-0.25391 0.48829-0.25391 1.0938 0 0.74219 0.70312 1.2305 0.72266 0.48828 1.8945 0.52735l5.1562 0.19531q1.4648 0.0391 2.6953 0.37109 1.25 0.33203 2.1289 0.95703 0.89844 0.625 1.3867 1.543 0.50781 0.91797 0.50781 2.1289 0 1.3086-0.56641 2.4805-0.56641 1.1719-1.7578 2.0508-1.1719 0.89844-2.9883 1.4258-1.8164 0.52734-4.3164 0.52734-2.3828 0-4.0625-0.39062-1.6602-0.37109-2.7344-1.0547-1.0742-0.66406-1.5625-1.6016-0.48828-0.91797-0.48828-2.0312 0-1.4258 0.66406-2.5 0.66406-1.0742 2.0508-2.0703-0.50781-0.23438-0.87891-0.58594-0.37109-0.35156-0.60547-0.76172-0.23438-0.42969-0.35156-0.89844-0.11719-0.46875-0.11719-0.91797 0-1.2695 0.58594-2.3242 0.60547-1.0547 1.4258-1.9922-0.37109-0.44922-0.66406-0.87891-0.27344-0.42969-0.48828-0.91797-0.19531-0.50781-0.3125-1.0742-0.09766-0.58593-0.09766-1.3281 0-1.5234 0.54688-2.7734 0.56641-1.2695 1.5625-2.168 1.0156-0.89843 2.4219-1.3867 1.4258-0.50781 3.1445-0.50781 0.72266 0 1.3867 0.0977 0.66406 0.0976 1.1719 0.2539h7.1094v2.7734zm-11.797 19.668q0 1.3867 1.4453 2.0117 1.4453 0.64453 4.0234 0.64453 1.6211 0 2.7148-0.29297 1.1133-0.29297 1.7773-0.78125 0.68359-0.46875 0.97656-1.0938 0.29297-0.60547 0.29297-1.25 0-1.1914-0.97656-1.7578-0.97656-0.56641-2.9883-0.66406l-5.1172-0.17578q-0.64453 0.42968-1.0742 0.83984-0.41016 0.41016-0.64453 0.82031-0.23438 0.42969-0.33203 0.83985-0.09766 0.42968-0.09766 0.85937zm1.0352-16.035q0 0.9375 0.3125 1.7188t0.87891 1.3281q0.56641 0.54687 1.3281 0.85937 0.78125 0.29297 1.7188 0.29297 1.0156 0 1.7969-0.33203 0.80078-0.35156 1.3281-0.9375 0.54688-0.58594 0.82031-1.3476 0.29297-0.76172 0.29297-1.582 0-0.9375-0.3125-1.7188t-0.87891-1.3281q-0.56641-0.54688-1.3477-0.83984-0.76172-0.3125-1.6992-0.3125-1.0156 0-1.8164 0.35156-0.78125 0.35156-1.3281 0.9375-0.52734 0.5664-0.82031 1.3281-0.27344 0.76172-0.27344 1.582z"/>
<path d="m102.72 442.6q0 0.72265-0.0195 1.2109t-0.0586 0.91797h-13.77q0 3.0078 1.6797 4.6289 1.6797 1.6016 4.8438 1.6016 0.85938 0 1.7188-0.0586 0.85938-0.0781 1.6602-0.19532 0.80078-0.11718 1.5234-0.2539 0.74219-0.15625 1.3672-0.33203v2.793q-1.3867 0.39062-3.1445 0.625-1.7383 0.2539-3.6133 0.2539-2.5195 0-4.3359-0.68359-1.8164-0.6836-2.9883-1.9727-1.1523-1.3086-1.7188-3.1836-0.54688-1.8945-0.54688-4.2774 0-2.0703 0.58594-3.9062 0.60547-1.8555 1.7383-3.2422 1.1523-1.4062 2.8125-2.2266 1.6602-0.82031 3.7695-0.82031 2.0508 0 3.6328 0.64453t2.6562 1.8359q1.0938 1.1719 1.6406 2.8711 0.5664 1.6797 0.5664 3.7695zm-3.5352-0.48829q0.05859-1.3086-0.25391-2.3828-0.3125-1.0938-0.97656-1.875-0.64453-0.78125-1.6211-1.2109-0.97656-0.44921-2.2656-0.44921-1.1133 0-2.0312 0.42968-0.91797 0.42969-1.582 1.2109-0.66406 0.78125-1.0742 1.875-0.41016 1.0938-0.50781 2.4023z"/>
<path d="m123.95 453.17q-1.1523 0.29297-2.3828 0.41016-1.2305 0.13672-2.5 0.13672-3.6914 0-5.5078-1.6602-1.8164-1.6797-1.8164-5.1367v-10.234h-5.4883v-2.8516h5.4883v-5.3906l3.3984-0.87891v6.2695h8.8086v2.8516h-8.8086v9.9609q0 2.1094 1.1133 3.1641 1.1328 1.0352 3.3203 1.0352 0.9375 0 2.0508-0.13672 1.1133-0.15625 2.3242-0.46875z"/>
<path d="m149.01 461.45h-21.992v-2.8125h21.992z"/>
<path d="m151.14 444.05q0-2.5 0.6836-4.4336 0.68359-1.9531 1.9336-3.2812 1.2695-1.3476 3.0273-2.0312 1.7774-0.70312 3.9453-0.70312 0.9375 0 1.8359 0.11719 0.91797 0.11718 1.7969 0.37109v-8.2422h3.418v27.598h-3.0469l-0.11719-3.7109q-1.4258 2.0703-3.0859 3.0664-1.6602 0.99609-3.5938 0.99609-1.6797 0-2.9688-0.70312-1.2695-0.70313-2.1289-1.9727-0.83984-1.2891-1.2695-3.0859-0.42969-1.7969-0.42969-3.9844zm3.4766-0.21485q0 3.5547 1.0352 5.3125 1.0547 1.7383 2.9688 1.7383 1.2891 0 2.7148-1.1524 1.4453-1.1523 3.0274-3.418v-9.1016q-0.83985-0.39062-1.8555-0.58594-1.0156-0.21484-2.0117-0.21484-2.7734 0-4.3359 1.7969-1.543 1.7969-1.543 5.625z"/>
<path d="m186.72 453.44-0.0781-2.6367q-1.6016 1.582-3.2617 2.2852-1.6406 0.70312-3.457 0.70312-1.6797 0-2.8711-0.42969-1.1914-0.42968-1.9727-1.1719-0.76171-0.76172-1.1328-1.7773-0.35156-1.0156-0.35156-2.207 0-2.9492 2.1875-4.6094 2.207-1.6797 6.5039-1.6797h4.0625v-1.7188q0-1.7383-1.1133-2.7734-1.1133-1.0547-3.3984-1.0547-1.6602 0-3.2812 0.37109-1.6016 0.37109-3.3203 1.0547v-3.0664q0.64454-0.23437 1.4258-0.44922 0.80078-0.23437 1.6797-0.41015 0.87891-0.17578 1.8359-0.27344 0.95703-0.11719 1.9336-0.11719 1.7774 0 3.2031 0.39063 1.4258 0.39062 2.4023 1.1914 0.9961 0.80078 1.5234 2.0117t0.52734 2.8516v13.516zm-0.37109-8.9258h-4.3164q-1.2695 0-2.1875 0.2539-0.91797 0.25391-1.5039 0.72266-0.58593 0.46875-0.8789 1.1328-0.27344 0.64453-0.27344 1.4648 0 0.5664 0.17578 1.0938 0.17578 0.50781 0.56641 0.91797 0.39062 0.39062 1.0156 0.625 0.625 0.23437 1.5234 0.23437 1.1719 0 2.6758-0.70312 1.5234-0.72266 3.2031-2.2656z"/>
<path d="m211.92 453.17q-1.1523 0.29297-2.3828 0.41016-1.2305 0.13672-2.5 0.13672-3.6914 0-5.5078-1.6602-1.8164-1.6797-1.8164-5.1367v-10.234h-5.4883v-2.8516h5.4883v-5.3906l3.3984-0.87891v6.2695h8.8086v2.8516h-8.8086v9.9609q0 2.1094 1.1133 3.1641 1.1328 1.0352 3.3203 1.0352 0.9375 0 2.0508-0.13672 1.1133-0.15625 2.3242-0.46875z"/>
<path d="m230.71 453.44-0.0781-2.6367q-1.6016 1.582-3.2617 2.2852-1.6406 0.70312-3.457 0.70312-1.6797 0-2.8711-0.42969-1.1914-0.42968-1.9727-1.1719-0.76172-0.76172-1.1328-1.7773-0.35157-1.0156-0.35157-2.207 0-2.9492 2.1875-4.6094 2.207-1.6797 6.5039-1.6797h4.0625v-1.7188q0-1.7383-1.1133-2.7734-1.1133-1.0547-3.3984-1.0547-1.6602 0-3.2812 0.37109-1.6016 0.37109-3.3203 1.0547v-3.0664q0.64453-0.23437 1.4258-0.44922 0.80078-0.23437 1.6797-0.41015 0.8789-0.17578 1.8359-0.27344 0.95703-0.11719 1.9336-0.11719 1.7773 0 3.2031 0.39063 1.4258 0.39062 2.4024 1.1914 0.99609 0.80078 1.5234 2.0117 0.52734 1.2109 0.52734 2.8516v13.516zm-0.37109-8.9258h-4.3164q-1.2695 0-2.1875 0.2539-0.91796 0.25391-1.5039 0.72266t-0.87891 1.1328q-0.27344 0.64453-0.27344 1.4648 0 0.5664 0.17579 1.0938 0.17578 0.50781 0.5664 0.91797 0.39063 0.39062 1.0156 0.625 0.625 0.23437 1.5234 0.23437 1.1719 0 2.6758-0.70312 1.5234-0.72266 3.2031-2.2656z"/>
</g>
</g>
</svg>
