<svg xmlns="http://www.w3.org/2000/svg" xml:space="preserve" viewBox="0 0 100 100"><path d="M68.094 57.634c2.142-3.41 3.384-7.436 3.384-11.75 0-12.221-9.941-22.164-22.163-22.164s-22.164 9.942-22.164 22.164 9.943 22.164 22.164 22.164c4.323 0 8.362-1.249 11.775-3.399.052.057.1.115.154.17l9.092 9.092c.972.971 2.242 1.455 3.514 1.455s2.543-.484 3.513-1.455c1.94-1.941 1.94-5.085 0-7.025l-9.091-9.092c-.057-.057-.119-.106-.178-.16zm-18.779 4.204c-8.797 0-15.955-7.156-15.955-15.954 0-8.796 7.157-15.953 15.955-15.953 8.796 0 15.954 7.156 15.954 15.953 0 8.798-7.158 15.954-15.954 15.954z"/><path d="M57.309 42.78H52.42v-4c0-1.714-1.391-3.105-3.105-3.105-1.716 0-3.105 1.391-3.105 3.105v4h-4.89c-1.715 0-3.104 1.39-3.104 3.104s1.39 3.105 3.104 3.105h4.89v5.779c0 1.715 1.389 3.105 3.105 3.105 1.714 0 3.105-1.391 3.105-3.105v-5.779h4.889c1.715 0 3.105-1.39 3.105-3.105s-1.391-3.104-3.105-3.104z"/><path d="M93.699 22.567c-.004-.025-.007-.05-.013-.075-.018-.115-.043-.229-.073-.341-.005-.02-.01-.039-.016-.058-.037-.125-.08-.248-.135-.37-.012-.024-.024-.047-.035-.072-.028-.059-.055-.121-.088-.179-.02-.034-.04-.064-.06-.096-.02-.032-.039-.062-.06-.092-.064-.102-.135-.198-.21-.29-.006-.007-.012-.015-.018-.022-.087-.102-.18-.197-.277-.286-.017-.017-.037-.033-.056-.05-.088-.074-.177-.146-.271-.21-.019-.013-.036-.026-.055-.039-.112-.074-.226-.138-.345-.196-.008-.004-.014-.009-.021-.013L50.657.339c-.848-.407-1.837-.407-2.687 0L6.662 20.179c-.006.003-.012.008-.019.011-.121.058-.237.124-.349.199-.018.011-.033.024-.051.036-.095.065-.187.137-.274.212-.019.017-.039.033-.057.05-.097.089-.19.184-.276.285-.007.008-.013.019-.021.027-.075.09-.142.184-.207.282-.02.032-.04.064-.06.098-.019.032-.04.061-.058.094-.032.057-.058.116-.086.174-.013.027-.027.053-.039.079-.054.12-.098.242-.135.366-.006.021-.011.043-.017.065-.03.109-.054.22-.072.333-.004.026-.009.054-.013.081-.018.133-.029.267-.029.4v51.043c0 1.127.612 2.169 1.6 2.716l41.31 22.905c0 .001.002.002.004.002.107.061.221.114.339.161.02.008.04.015.059.022.093.035.188.066.285.093.031.009.061.017.093.023.089.023.18.038.272.053.031.004.061.01.091.013.119.015.24.023.362.023s.242-.009.361-.023c.031-.003.06-.009.091-.013.091-.015.182-.029.272-.053.032-.007.062-.015.093-.023.097-.026.192-.058.285-.093.02-.008.041-.015.059-.022.118-.047.23-.101.34-.161.002 0 .004-.001.005-.002L92.128 76.73c.987-.547 1.6-1.589 1.6-2.716V22.978c0-.002-.001-.004-.001-.005.001-.135-.01-.271-.028-.406zM87.52 72.185l-35.1 19.463V76.651c0-1.715-1.391-3.104-3.105-3.104-1.716 0-3.105 1.39-3.105 3.104v14.996L11.111 72.185V28.25l10.599 5.878c.477.264.994.39 1.502.39 1.091 0 2.151-.578 2.719-1.6.832-1.5.29-3.39-1.209-4.221l-9.957-5.52 34.55-16.593 34.549 16.593-9.956 5.52c-1.501.831-2.042 2.721-1.21 4.221.567 1.021 1.626 1.6 2.718 1.6.51 0 1.027-.126 1.504-.39l10.6-5.878v43.935z"/></svg>